/* XPM */
static const char * lameview_xpm[] = {
"48 48 196 2",
"  	c None",
". 	c #341E6C",
"+ 	c #441684",
"@ 	c #4C1E9C",
"# 	c #5426AC",
"$ 	c #340264",
"% 	c #1C1644",
"& 	c #24225C",
"* 	c #34267C",
"= 	c #442A94",
"- 	c #442A9C",
"; 	c #543EBC",
"> 	c #644ECC",
", 	c #645ED4",
"' 	c #7472EC",
") 	c #8496FC",
"! 	c #342E84",
"~ 	c #3C3294",
"{ 	c #4C3EAC",
"] 	c #544AC4",
"^ 	c #6C6AE4",
"/ 	c #6C72EC",
"( 	c #8C96FC",
"_ 	c #9CA6FC",
": 	c #B4BEFC",
"< 	c #D4DAFC",
"[ 	c #ECEEFC",
"} 	c #FCFAFC",
"| 	c #A4AEFC",
"1 	c #5C22AC",
"2 	c #1C023C",
"3 	c #343A84",
"4 	c #3C42A4",
"5 	c #444ABC",
"6 	c #5456CC",
"7 	c #5C62DC",
"8 	c #6C6EE4",
"9 	c #747EF4",
"0 	c #7C8AFC",
"a 	c #949EFC",
"b 	c #ACB6FC",
"c 	c #CCD6FC",
"d 	c #E4EAFC",
"e 	c #ECF2FC",
"f 	c #DCDEFC",
"g 	c #CCD2FC",
"h 	c #6C5ADC",
"i 	c #14163C",
"j 	c #243A74",
"k 	c #2C3E84",
"l 	c #3C4EAC",
"m 	c #4456BC",
"n 	c #545ECC",
"o 	c #5C6EE4",
"p 	c #646EF4",
"q 	c #8C9EFC",
"r 	c #ACB2FC",
"s 	c #BCC6FC",
"t 	c #D4D6FC",
"u 	c #DCE6FC",
"v 	c #7482FC",
"w 	c #7C86FC",
"x 	c #7486FC",
"y 	c #7C82FC",
"z 	c #4C028C",
"A 	c #040214",
"B 	c #344694",
"C 	c #546EDC",
"D 	c #6C7AF4",
"E 	c #8C9AFC",
"F 	c #C4CEFC",
"G 	c #B4BAFC",
"H 	c #6436BC",
"I 	c #2C024C",
"J 	c #34428C",
"K 	c #5C72E4",
"L 	c #848EFC",
"M 	c #6C62DC",
"N 	c #440274",
"O 	c #2C3A7C",
"P 	c #9CA2FC",
"Q 	c #B4C2FC",
"R 	c #BCC2FC",
"S 	c #9CAAFC",
"T 	c #5C129C",
"U 	c #1C022C",
"V 	c #242A64",
"W 	c #644ACC",
"X 	c #3C025C",
"Y 	c #1C2E5C",
"Z 	c #94A6FC",
"` 	c #747EFC",
" .	c #540284",
"..	c #1C2254",
"+.	c #849AFC",
"@.	c #8492FC",
"#.	c #6442C4",
"$.	c #643ABC",
"%.	c #4C027C",
"&.	c #040204",
"*.	c #545ACC",
"=.	c #7C92FC",
"-.	c #7C8EFC",
";.	c #5C2AAC",
">.	c #5C26AC",
",.	c #54068C",
"'.	c #44027C",
").	c #44026C",
"!.	c #34025C",
"~.	c #2C0244",
"{.	c #24023C",
"].	c #6C86FC",
"^.	c #6C6EEC",
"/.	c #6456D4",
"(.	c #5C3AB4",
"_.	c #4C1694",
":.	c #3C166C",
"<.	c #4446B4",
"[.	c #5C5AD4",
"}.	c #4C32AC",
"|.	c #44228C",
"1.	c #341664",
"2.	c #3C3A9C",
"3.	c #4C42A4",
"4.	c #6C76EC",
"5.	c #44268C",
"6.	c #342A7C",
"7.	c #2C266C",
"8.	c #645AD4",
"9.	c #441E8C",
"0.	c #2C165C",
"a.	c #3C1E74",
"b.	c #241654",
"c.	c #5C46C4",
"d.	c #6C82FC",
"e.	c #4C2AA4",
"f.	c #6C7EFC",
"g.	c #647EFC",
"h.	c #6466E4",
"i.	c #5C62E4",
"j.	c #2C3274",
"k.	c #343284",
"l.	c #4C5ACC",
"m.	c #5466DC",
"n.	c #544EC4",
"o.	c #442E9C",
"p.	c #342274",
"q.	c #5C4ACC",
"r.	c #6462E4",
"s.	c #3C56AC",
"t.	c #445EC4",
"u.	c #6C82EC",
"v.	c #F4FAFC",
"w.	c #9C9EF4",
"x.	c #644EBC",
"y.	c #4C229C",
"z.	c #5C46CC",
"A.	c #3C56B4",
"B.	c #ACBEFC",
"C.	c #ECEAFC",
"D.	c #9C96E4",
"E.	c #5422A4",
"F.	c #647AEC",
"G.	c #9CA2EC",
"H.	c #5C3EBC",
"I.	c #4C6AD4",
"J.	c #C4CAFC",
"K.	c #CCCEFC",
"L.	c #9C9AFC",
"M.	c #1C224C",
"N.	c #748EFC",
"O.	c #A4AAFC",
"P.	c #6486FC",
"Q.	c #4C62CC",
"R.	c #949AFC",
"S.	c #6C8AFC",
"T.	c #2C3674",
"U.	c #848AFC",
"V.	c #141E44",
"W.	c #340254",
"X.	c #6C52D4",
"Y.	c #443AAC",
"Z.	c #7C72EC",
"`.	c #5C0A94",
" +	c #4C36AC",
".+	c #6C5AD4",
"++	c #9496FC",
"@+	c #7C66DC",
"#+	c #5436AC",
"$+	c #7C72DC",
"%+	c #846EDC",
"&+	c #6C2AAC",
"*+	c #744ABC",
"=+	c #7C5ACC",
"-+	c #7C4EC4",
";+	c #240234",
"                                                                                                ",
"                                                                            . + @ # $           ",
"                                                              % & * = - ; > , ' ) ' +           ",
"                                                        ! ~ { ] , ^ / ( _ : < [ } | 1 2         ",
"                                              3 4 5 6 7 8 9 0 a b c d [ [ [ e f g _ h           ",
"                                i j k l m n o p 9 0 q r s t u u u u u g b a v w x y 9 z A       ",
"                                B C D v 0 E | : F < < < < t t t t G ( y w x w x w x y H I       ",
"                                J K a s F F F F F F F F F F F : L w v w x w v w v w x M N       ",
"                                O o P Q Q Q R Q Q Q : Q : Q S x w x w x y x w x w x y w T U     ",
"                                V o q b b | b b | b b b b E y x y x y x w x y x y x w x W X     ",
"                                Y n L S Z S S Z S S Z Z L x w x w x w x y x w x w x y x `  .    ",
"                                ..n 0 q q q q q q +.@.w x w v w v w v w x w v y M h #.$.1 %.    ",
"                                &.*.x =.-.=.-.-.0 w x w x w x w ^ ^ W W ;.>.,.'.).!.~.{.        ",
"                                  5 x x ].x x x / ^././.; (.@ _.+ :.!.~.2 A &.&.&.&.            ",
"                                  <.y v x [.}.}.- |.. 1.2 2                                     ",
"                                  2.w x w 3.                                                    ",
"                                  ~ 4.y x 3.                                                    ",
"                                  ~ / w x 5.                                                    ",
"                                  6./ x y |.                                                    ",
"                                  * , x x |.                                                    ",
"                                  7.8.y x 9.                                                    ",
"                                  0.[.w v a.                                                    ",
"                                  b.c.x w 9.                                                    ",
"                                    ; v ` a.                                                    ",
"                                    ; v d.+                                                     ",
"                                    e.d.f.+                                                     ",
"                                    @ f.g.+                                                     ",
"                                    9.g.g.:.                                                    ",
"                                    + h.g.'.                                                    ",
"                                    + i.g.'.                                                    ",
"                i V j.j.k.& % &.    :.i.p '.                                                    ",
"            O l m l.m.m.m.n.{ o.p.  :.q.r.N                                                     ",
"        Y s.t.u.: < } v.} v.t w.x.y.+ z.r.N                                                     ",
"      j A.K B.d C.d C.C.d C.[ d C.D.E.z.r.N                                                     ",
"    Y t.F.F f f < f < f f < f f < f G.H.r.N                                                     ",
"  &.s.I.b J.K.J.K.J.K.J.J.K.J.K.J.K.K.L.r.N                                                     ",
"  M.t.N.G G G G G G G G G G G G G _ +.N.r.N                                                     ",
"  O t.) O.O.O.O.O.O.O.O.O.O.a -.P.P.].P.M N                                                     ",
"  k Q.( R.R.R.R.R.R.R.R.) S.P.P.d.P.P.d.h.N                                                     ",
"  T.l.x 0 0 0 0 U.0 0 ].].d.d.d.].d.d.].r.).                                                    ",
"  V.5 9 ` y v y ` v ` ` v f.v v f.v ` d.T W.                                                    ",
"  &.2.6 y y y y y y y y y y y y y y y X.%.                                                      ",
"    i Y.^ U.U.U.U.U.U.U.U.U.U.U.U.U.Z.`.                                                        ",
"      %  +.+++++++++++++++++++++++@+`.X                                                         ",
"        % 5.#+$+L.w.w.P w.w.P %+&+ .{.                                                          ",
"          &.0.+ _.$.*+=+-+&+`.%.I A                                                             ",
"                &.{.2 !.I ;+                                                                    ",
"                                                                                                "};
