/* XPM */
static const char * lameview_xpm[] = {
"32 32 195 2",
"  	c None",
". 	c #4E35A0",
"+ 	c #5E45C3",
"@ 	c #5A34B4",
"# 	c #3B2E8D",
"$ 	c #5048B3",
"% 	c #5F57D0",
"& 	c #655FDA",
"* 	c #8483E9",
"= 	c #A7AFFF",
"- 	c #BFC5FF",
"; 	c #D9DDFF",
"> 	c #8985EC",
", 	c #2E3B82",
"' 	c #3B449C",
") 	c #4C55BB",
"! 	c #5C63D7",
"~ 	c #666DE4",
"{ 	c #838AF1",
"] 	c #A0AAFF",
"^ 	c #B5BDFF",
"/ 	c #CCD2FF",
"( 	c #EAEDFF",
"_ 	c #DDE1FF",
": 	c #CFD5FF",
"< 	c #B3BAFF",
"[ 	c #95A0FF",
"} 	c #54229D",
"| 	c #3D57B1",
"1 	c #5D71E2",
"2 	c #6877EC",
"3 	c #828EF7",
"4 	c #99A4FF",
"5 	c #ABB4FF",
"6 	c #BDC5FF",
"7 	c #D7DDFF",
"8 	c #D2D8FF",
"9 	c #AFB8FF",
"0 	c #8B96FF",
"a 	c #7885FF",
"b 	c #6A55D6",
"c 	c #4A5FC2",
"d 	c #939EFF",
"e 	c #C2CCFF",
"f 	c #A4AEFF",
"g 	c #7D8AFF",
"h 	c #767DF8",
"i 	c #460076",
"j 	c #4655B5",
"k 	c #939FFF",
"l 	c #ADBAFF",
"m 	c #8E9AFF",
"n 	c #6231B7",
"o 	c #3D46A5",
"p 	c #8794FF",
"q 	c #98A7FF",
"r 	c #95A4FF",
"s 	c #828FFF",
"t 	c #6F64E3",
"u 	c #323885",
"v 	c #7B89FF",
"w 	c #8295FF",
"x 	c #8192FF",
"y 	c #7E8DFF",
"z 	c #6E68E5",
"A 	c #6F67E5",
"B 	c #6646C9",
"C 	c #6644C7",
"D 	c #5A22A4",
"E 	c #502294",
"F 	c #3D0066",
"G 	c #323583",
"H 	c #7381FB",
"I 	c #7085FF",
"J 	c #7486FF",
"K 	c #6C72EB",
"L 	c #6D70EA",
"M 	c #6258D3",
"N 	c #6356D2",
"O 	c #593BB8",
"P 	c #5035A4",
"Q 	c #421580",
"R 	c #323282",
"S 	c #6C75ED",
"T 	c #615ED6",
"U 	c #6C74EC",
"V 	c #625BD5",
"W 	c #6A6EE6",
"X 	c #5A49C3",
"Y 	c #615DD6",
"Z 	c #5840BB",
"` 	c #583DB9",
" .	c #5F53CE",
"..	c #7785FF",
"+.	c #593AB8",
"@.	c #563EBB",
"#.	c #7283FF",
"$.	c #5836B6",
"%.	c #4C38A7",
"&.	c #6C80FF",
"*.	c #5732B4",
"=.	c #462B97",
"-.	c #677EFF",
";.	c #562EB2",
">.	c #461587",
",.	c #647DFF",
"'.	c #562BB0",
").	c #272762",
"!.	c #27225D",
"~.	c #3B156D",
"{.	c #5727AE",
"].	c #1C274C",
"^.	c #324695",
"/.	c #4254B8",
"(.	c #606CCD",
"_.	c #7C85DC",
":.	c #7B7DD5",
"<.	c #645CC3",
"[.	c #422E99",
"}.	c #2E1C63",
"|.	c #3B1569",
"1.	c #6370F2",
"2.	c #5824AC",
"3.	c #2B3D7F",
"4.	c #425DC2",
"5.	c #8B9BE8",
"6.	c #DFE4FF",
"7.	c #F1F3FF",
"8.	c #F2F3FF",
"9.	c #DEDEFA",
"0.	c #9483D2",
"a.	c #501B9C",
"b.	c #6162E5",
"c.	c #5921AA",
"d.	c #22356A",
"e.	c #4764CD",
"f.	c #ABB7FB",
"g.	c #DBDDFF",
"h.	c #B5A9E6",
"i.	c #6265E6",
"j.	c #5A1FA9",
"k.	c #3D57B3",
"l.	c #8A9AF0",
"m.	c #C1C5FF",
"n.	c #B2BBFF",
"o.	c #7F93FF",
"p.	c #5A21A9",
"q.	c #4A62CE",
"r.	c #A6ACFF",
"s.	c #9CA7FF",
"t.	c #8297FF",
"u.	c #708BFF",
"v.	c #6785FF",
"w.	c #6A85FF",
"x.	c #58119A",
"y.	c #4D60CF",
"z.	c #8993FF",
"A.	c #8B93FF",
"B.	c #8893FF",
"C.	c #738AFF",
"D.	c #6885FF",
"E.	c #460074",
"F.	c #444AB4",
"G.	c #737DFB",
"H.	c #7882FF",
"I.	c #7781FF",
"J.	c #7480FF",
"K.	c #7280FF",
"L.	c #6859DB",
"M.	c #323280",
"N.	c #5C58D0",
"O.	c #7F84FF",
"P.	c #7C7BF8",
"Q.	c #5A109A",
"R.	c #3B2B85",
"S.	c #6456CB",
"T.	c #8C8DFA",
"U.	c #9094FF",
"V.	c #8477EA",
"W.	c #5F1AA1",
"X.	c #2E1C66",
"Y.	c #4C2B9C",
"Z.	c #7157C9",
"`.	c #8677DF",
" +	c #8C7EE5",
".+	c #8C7CE4",
"++	c #8365D5",
"@+	c #6B31B0",
"#+	c #000000",
"$+	c #22003D",
"%+	c #350060",
"&+	c #35005D",
"*+	c #35005A",
"=+	c #320050",
"-+	c #1C002B",
"                                                  . + @         ",
"                                      # $ % & * = - ; >         ",
"                          , ' ) ! ~ { ] ^ / ( ( _ : < [ }       ",
"                    | 1 2 3 4 5 6 7 7 7 7 8 9 0 a a a a b       ",
"                    c d e e e e e e e e f g a a a a a a h i     ",
"                    j k l l l l l l l m a a a a a a a a a n     ",
"                    o p q q q q q r s a a a a a a a a a a t     ",
"                    u v w w w x y a a a a a z A B C D E F       ",
"                    G H I J K L M N O P Q                       ",
"                    R S a T                                     ",
"                      U a V                                     ",
"                      W a X                                     ",
"                      Y a Z                                     ",
"                      V a `                                     ",
"                       ...+.                                    ",
"                      @.#.$.                                    ",
"                      %.&.*.                                    ",
"                      =.-.;.                                    ",
"                      >.,.'.                                    ",
"            ).!.      ~.,.{.                                    ",
"    ].^./.(._.:.<.[.}.|.1.2.                                    ",
"  3.4.5.6.7.7.8.8.9.0.a.b.c.                                    ",
"d.e.f.g.g.g.g.g.g.g.g.h.i.j.                                    ",
"k.l.m.m.m.m.m.m.m.m.m.n.o.p.                                    ",
"q.4 r.r.r.r.r.r.s.t.u.v.w.x.                                    ",
"y.z.A.A.A.A.B.C.D.D.D.D.w.E.                                    ",
"F.G.H.I.I.J.K.K.K.K.K.K.L.F                                     ",
"M.N.O.O.O.O.O.O.O.O.O.P.Q.                                      ",
"  R.S.T.U.U.U.U.U.U.V.W.                                        ",
"    X.Y.Z.`. +.+++@+E.                                          ",
"      #+$+%+&+*+=+-+                                            ",
"                                                                "};
