/* XPM */
static const char * lameview_xpm[] = {
"16 16 70 1",
" 	c None",
".	c #2A2361",
"+	c #564D8D",
"@	c #695FA5",
"#	c #4650B0",
"$	c #6A72DF",
"%	c #9CA2F4",
"&	c #BFCAFC",
"*	c #DEE4FC",
"=	c #BAC0FC",
"-	c #96A0FC",
";	c #2B1558",
">	c #485ABB",
",	c #ADB9FF",
"'	c #BEC7FF",
")	c #C5CEFD",
"!	c #BFC9FC",
"~	c #97A1FB",
"{	c #7580FC",
"]	c #7381FB",
"^	c #7684FD",
"/	c #5743AA",
"(	c #384392",
"_	c #93A2FF",
":	c #92A3FC",
"<	c #8F9FFC",
"[	c #7A88FC",
"}	c #7784FC",
"|	c #7885FC",
"1	c #7885FD",
"2	c #7272EC",
"3	c #6A46CD",
"4	c #7888FF",
"5	c #5251B6",
"6	c #48419A",
"7	c #3B2F7C",
"8	c #2E215B",
"9	c #7378F5",
"0	c #6F6DEC",
"a	c #6B63E4",
"b	c #6259DE",
"c	c #5C46CE",
"d	c #6F7AB8",
"e	c #9EA5DC",
"f	c #9291C9",
"g	c #4D3E7A",
"h	c #5431B6",
"i	c #182451",
"j	c #A6B2F8",
"k	c #D3D6FC",
"l	c #D0D4FC",
"m	c #D1D4FC",
"n	c #7760D3",
"o	c #3C4A92",
"p	c #9BA3FC",
"q	c #99A0FB",
"r	c #8598FC",
"s	c #728CFC",
"t	c #6562E0",
"u	c #2A2C69",
"v	c #7A81FC",
"w	c #7981FC",
"x	c #7880FC",
"y	c #7781FC",
"z	c #7681FC",
"A	c #583DAE",
"B	c #8275E7",
"C	c #938CF8",
"D	c #8E7DF0",
"E	c #6548B1",
"           .+@  ",
"       #$%&*=-; ",
"     >,')!~{]^/ ",
"     (_:<[}|123 ",
"      45678     ",
"      9         ",
"      0         ",
"      a         ",
"      b         ",
"      c         ",
"  defgh         ",
"ijklmln         ",
"opq-rst         ",
"uvwxyzA         ",
"  BCDE          ",
"                "};
